<?xml version="1.0" encoding="utf-8"?>
<!-- Generator: Adobe Illustrator 15.0.2, SVG Export Plug-In  -->
<!DOCTYPE svg PUBLIC "-//W3C//DTD SVG 1.1//EN" "http://www.w3.org/Graphics/SVG/1.1/DTD/svg11.dtd" [
	<!ENTITY ns_flows "http://ns.adobe.com/Flows/1.0/">
]>
<svg version="1.1"
	 xmlns="http://www.w3.org/2000/svg" xmlns:xlink="http://www.w3.org/1999/xlink" xmlns:a="http://ns.adobe.com/AdobeSVGViewerExtensions/3.0/"
	 x="0px" y="0px" width="290px" height="56px" viewBox="-0.002 -0.003 290 56" enable-background="new -0.002 -0.003 290 56"
	 xml:space="preserve">
<defs>
</defs>
<g id="Shape_1_2_">
	<g>
		<path fill-rule="evenodd" clip-rule="evenodd" fill="#DC0066" d="M113.467,31.611h-9.001c-4.75,0-5.587-0.722-5.587-2.857
			c0-2.956,2.08-3.204,7.946-3.204h3.228c7.977,0,8.349,0.521,8.411,3.379h2.856v-0.621c0-3.206-1.894-4.746-9.436-4.746h-6.549
			c-6.269,0-9.311,0.919-9.311,5.019c0,4.771,3.042,5.217,12.322,5.217h5.773c3.787,0,4.904,0.571,4.904,2.832
			c0,2.584-1.304,3.328-5.711,3.328h-9.435c-3.788,0-4.966-0.843-4.966-2.607v-1.269h-2.856v1.317c0,3.926,3.911,4.548,8.349,4.548
			h8.442c4.5,0,9.032-0.324,9.032-4.746v-1.167C121.878,32.977,119.395,31.611,113.467,31.611z M167.377,23.76h-3.042v17.986h20.483
			v-1.988h-17.441V23.76z M209.99,23.561h-12.942c-6.083,0-8.007,2.188-8.007,6.732v4.92c0,4.545,1.924,6.732,8.007,6.732h12.942
			c6.084,0,8.008-2.188,8.008-6.732v-4.92C217.998,25.749,216.074,23.561,209.99,23.561z M214.957,36.131
			c0,3.13-2.359,3.825-5.276,3.825h-12.321c-2.918,0-5.277-0.695-5.277-3.825v-6.757c0-3.129,2.359-3.825,5.277-3.825h12.321
			c2.917,0,5.276,0.696,5.276,3.825V36.131z M246.055,23.561h-12.942c-6.083,0-8.007,2.188-8.007,6.732v4.92
			c0,4.545,1.924,6.732,8.007,6.732h12.942c6.084,0,8.008-2.188,8.008-6.732v-4.92C254.063,25.749,252.139,23.561,246.055,23.561z
			 M251.021,36.131c0,3.13-2.358,3.825-5.276,3.825h-12.321c-2.918,0-5.275-0.695-5.275-3.825v-6.757
			c0-3.129,2.357-3.825,5.275-3.825h12.321c2.918,0,5.276,0.696,5.276,3.825V36.131z M286.961,23.76v15.8l-20.577-15.8h-4.532
			v17.986h3.042v-15.8l20.578,15.8h4.531V23.76H286.961z M141.182,23.76l-13.346,17.986h3.444l2.794-3.802h0.035l1.459-1.986h-0.036
			l7.542-10.21l7.542,10.21h-0.009l1.46,1.986h0.008l2.793,3.802h3.445L144.969,23.76H141.182z"/>
	</g>
</g>
<g id="Shape_1_copy_2_2_">
	<g>
		<path fill-rule="evenodd" clip-rule="evenodd" fill="#DC0066" d="M95.977,11.365h4.83v6.901h1.292v-6.901h4.829v-0.857H95.977
			V11.365z M119.661,13.839h-8.629v-3.332h-1.294v7.759h1.294v-3.569h8.629v3.569h1.292v-7.759h-1.292V13.839z M134.187,10.507
			h-9.381v0.857h9.381V10.507z M126.099,17.408v-0.021h-1.293v0.879h9.434v-0.858H126.099z M126.195,14.697h7.675v-0.857h-7.771
			v-0.002h-1.293v0.855h1.39V14.697z"/>
	</g>
</g>
<g id="Shape_1_copy_2_">
	<g>
		<path fill-rule="evenodd" clip-rule="evenodd" fill="#DC0066" d="M57.648,33.793H38.314c-10.198,0-11.997-1.547-11.997-6.134
			c0-6.353,4.466-6.886,17.066-6.886h6.933c17.132,0,17.933,1.122,18.064,7.258h6.135v-1.334c0-3.568-1.099-6.174-4.408-7.857
			c3.174-1.432,5.254-3.926,5.254-8.303V8.032c0-0.28-0.015-0.553-0.033-0.818c-0.612,8.63-10.018,9.279-19.368,9.279H37.827
			c-5.378,0-10.382-0.437-13.732-2.321C34.91,9.821,42.706,4.246,41.648,1.512c-1.1-2.839-11.311-1.563-22.767,2.847
			C7.427,8.771-1.001,14.67,0.096,17.511c1.04,2.681,10.198,1.691,20.858-2.141c0.848,1.512,2.174,2.612,3.851,3.405
			c-3.087,1.614-4.623,4.261-4.623,8.509c0,10.247,6.532,11.205,26.465,11.205h12.4c8.135,0,10.533,1.227,10.533,6.084
			c0,5.549-2.799,7.149-12.267,7.149H33.306c-7.698,0-10.217-1.629-10.465-5.013l7.021,0.072c-8.628-2.214-9.602-8.189-9.602-8.189
			V43.4h-0.013v2.826c0,0.067,0.012,0.127,0.013,0.193v0.265h0.017c0.312,8.008,8.555,9.308,17.903,9.308h18.134
			c9.667,0,19.401-0.693,19.401-10.19v-2.511C75.716,36.728,70.382,33.793,57.648,33.793z M19.984,8.137h-0.089v2.829
			c0,1.48,0.272,2.731,0.751,3.806C11.4,18.051,3.505,18.878,2.603,16.545C1.638,14.049,9.049,8.862,19.121,4.984
			C29.193,1.103,38.173-0.02,39.14,2.476c0.94,2.434-6.077,7.416-15.752,11.26C21.541,12.484,20.307,10.698,19.984,8.137z"/>
	</g>
</g>
</svg>
